# xmcd
#
# Track frame offsets:
#	150
#	16090
#	34475
#	50755
#	65900
#	84262
#	96957
#	110312
#	134035
#	149740
#	169615
#
# Disc length: 2520 seconds
#
# Revision: 5
# Processed by: cddbd v1.5.2PL0 Copyright (c) Steve Scherf et al.
# Submitted via: EZCDAudioConverter 3.1.5.1
#
DISCID=a109d60b
DTITLE=Άλκηστις Πρωτοψάλτη - Υδρόγειες Σφαίρες
DYEAR=2000
DGENRE=entexno
TTITLE0=Όστρακο
TTITLE1=Ακίνδυνος
TTITLE2=	Εμπορεύματα
TTITLE3=Δράκος
TTITLE4=	Χαράματα
TTITLE5=Καλά Μαντάτα
TTITLE6=	Διαβατήριο
TTITLE7=	Παραμύθι
TTITLE8=	Στεριές
TTITLE9=	Επιστολή
TTITLE10=Υδρόγειες Σφαίρες
EXTD=
EXTT0=
EXTT1=
EXTT2=
EXTT3=
EXTT4=
EXTT5=
EXTT6=
EXTT7=
EXTT8=
EXTT9=
EXTT10=
PLAYORDER=
